<?xml version="1.0" standalone="no"?>
<!DOCTYPE svg PUBLIC "-//W3C//DTD SVG 20010904//EN"
 "http://www.w3.org/TR/2001/REC-SVG-20010904/DTD/svg10.dtd">
<svg version="1.0" xmlns="http://www.w3.org/2000/svg"
 width="625.000000pt" height="676.000000pt" viewBox="0 0 625.000000 676.000000"
 preserveAspectRatio="xMidYMid meet">

<g transform="translate(0.000000,676.000000) scale(0.100000,-0.100000)"
fill="#000000" stroke="none">
<path d="M4652 6564 c-216 -76 -404 -331 -488 -663 -23 -89 -24 -110 -24 -399
l0 -305 -47 -55 c-101 -118 -298 -264 -486 -361 -394 -201 -913 -300 -1437
-272 -293 16 -442 60 -665 199 -143 89 -362 299 -493 475 -149 197 -293 454
-382 680 l-43 109 -34 -54 c-119 -189 -137 -569 -42 -918 37 -133 102 -242
209 -351 102 -103 157 -143 297 -213 194 -97 495 -166 724 -166 l61 0 -73 -67
c-121 -112 -189 -243 -232 -443 -26 -124 -27 -349 -3 -504 26 -166 5 -271 -64
-330 -34 -28 -102 -50 -132 -43 -11 3 -22 -2 -27 -11 -10 -20 -361 -891 -361
-898 0 -2 135 -4 300 -4 l300 0 0 58 c0 31 -5 74 -10 94 -14 50 -101 143 -164
175 -49 25 -50 26 -30 42 11 9 107 88 213 176 107 88 219 180 249 205 l55 46
2 139 c1 116 5 150 23 198 52 141 150 258 261 313 33 16 60 33 60 37 1 5 -30
46 -69 91 -80 95 -93 122 -111 226 -14 89 -3 172 34 253 23 51 92 135 103 125
2 -3 0 -34 -6 -69 -15 -93 -12 -208 6 -270 31 -107 191 -221 356 -254 99 -19
338 -20 476 0 128 18 301 57 430 95 53 17 102 30 108 30 7 0 15 -15 18 -34 33
-174 158 -395 314 -552 82 -83 197 -174 220 -174 8 0 203 58 434 130 230 71
419 130 421 130 2 0 3 -46 3 -102 -1 -88 2 -110 22 -150 28 -56 87 -103 156
-123 50 -15 153 -20 194 -9 l22 6 0 444 c0 243 -4 445 -8 448 -4 2 -97 -6
-207 -20 -110 -13 -208 -24 -218 -24 -14 0 -5 16 37 61 87 96 165 219 186 293
72 252 72 556 -1 826 -29 110 -86 251 -139 344 l-47 81 81 3 81 3 55 -54 c87
-84 200 -127 333 -127 61 0 78 5 148 41 153 80 262 220 290 374 17 92 6 226
-28 325 l-28 85 -322 3 c-178 1 -323 3 -323 5 0 1 16 51 35 111 19 60 35 113
35 118 0 4 -115 8 -255 8 l-255 0 0 215 0 215 -27 0 c-16 -1 -47 -8 -71 -16z
m-148 -1856 c3 -13 6 -39 6 -59 0 -20 3 -56 6 -81 l6 -45 78 -6 c86 -7 155
-30 205 -70 43 -35 85 -120 92 -191 5 -47 9 -56 25 -56 41 0 128 -69 128 -101
0 -38 -72 -161 -112 -189 -49 -36 -130 -54 -178 -40 -145 42 -242 -32 -257
-196 -3 -35 -9 -64 -14 -64 -4 0 -35 25 -67 55 -120 111 -190 309 -208 590
-10 159 23 261 120 363 43 46 136 112 157 112 4 0 9 -10 13 -22z"/>
<path d="M2580 2839 c-62 -71 -170 -145 -259 -178 -50 -19 -61 -28 -61 -46 0
-22 85 -598 95 -642 l5 -23 295 0 295 0 0 33 c0 111 -161 269 -313 308 -35 8
-47 16 -43 26 3 8 78 141 166 295 88 154 160 282 160 284 0 2 -64 4 -143 4
l-143 0 -54 -61z"/>
<path d="M4475 2814 c-87 -46 -163 -88 -167 -92 -5 -5 54 -179 130 -388 l137
-379 297 -3 c336 -3 313 -9 297 86 -11 69 -39 120 -97 174 -57 53 -150 88
-236 88 l-52 0 -69 295 c-37 163 -71 298 -74 300 -4 2 -78 -35 -166 -81z"/>
<path d="M50 765 l0 -675 3075 0 3075 0 0 675 0 675 -3075 0 -3075 0 0 -675z
m2132 344 c74 -16 125 -44 148 -82 36 -59 22 -105 -53 -174 -77 -71 -283 -160
-410 -178 -47 -6 -48 -6 -45 17 3 21 8 23 73 24 120 2 296 84 356 167 42 58
40 109 -5 152 -46 44 -111 60 -231 59 -193 -1 -355 -79 -471 -226 -36 -47 -50
-58 -52 -45 -5 25 42 90 98 138 81 70 220 130 350 152 53 9 191 6 242 -4z
m1510 1 c29 0 78 -53 78 -85 0 -30 -28 -95 -41 -95 -4 0 -5 23 -2 50 8 70 -11
90 -86 90 -72 0 -220 -51 -319 -109 -86 -50 -184 -143 -200 -189 -25 -74 47
-89 240 -52 131 25 163 25 189 -1 26 -26 19 -59 -24 -115 -63 -80 -148 -141
-246 -174 -68 -22 -131 -26 -149 -8 -20 20 -14 65 14 98 34 40 43 31 14 -15
-18 -30 -20 -38 -9 -51 17 -21 90 -13 155 15 104 46 204 148 204 208 0 36 -36
38 -169 9 -201 -43 -281 -33 -281 37 1 117 172 268 399 354 64 24 173 44 199
37 8 -2 23 -4 34 -4z m-1697 -100 c4 -6 -35 -57 -86 -115 -142 -161 -194 -242
-233 -361 -18 -56 -10 -104 19 -104 8 0 15 -4 15 -10 0 -5 -11 -10 -24 -10
-107 0 -54 193 119 435 36 50 65 95 65 101 0 7 16 26 35 43 35 31 78 41 90 21z
m795 -86 c0 -3 -22 -51 -50 -106 -27 -55 -50 -106 -50 -114 0 -10 12 -14 41
-14 24 0 38 -4 34 -10 -3 -5 -22 -10 -41 -10 -20 0 -43 -4 -53 -9 -10 -6 -46
-71 -81 -145 -35 -75 -70 -136 -77 -136 -14 0 4 54 66 199 17 40 31 75 31 78
0 3 -23 3 -50 1 -28 -3 -53 -1 -56 3 -5 9 14 15 86 27 45 7 46 8 102 107 76
134 77 135 88 135 6 0 10 -3 10 -6z m1160 -1 c0 -4 -23 -51 -51 -106 -28 -54
-48 -105 -45 -113 3 -8 19 -14 41 -14 22 0 34 -4 30 -10 -3 -5 -22 -10 -41
-10 -20 0 -43 -4 -53 -9 -10 -6 -46 -71 -81 -145 -59 -127 -80 -158 -80 -121
0 12 48 138 97 254 5 11 -4 13 -46 9 -28 -3 -54 -2 -56 3 -6 8 9 14 65 24 63
12 70 16 94 58 88 154 108 187 116 187 6 0 10 -3 10 -7z m-1546 -199 c9 -8 16
-21 16 -28 0 -29 -49 -81 -107 -115 -65 -38 -78 -62 -43 -81 23 -13 72 5 125
46 44 33 46 15 3 -22 -123 -103 -235 -49 -177 85 41 97 140 159 183 115z
m2371 3 c40 -30 -12 -106 -108 -157 -50 -27 -60 -52 -27 -70 23 -13 72 5 125
46 44 33 46 15 3 -22 -71 -59 -144 -71 -177 -28 -24 31 -25 42 -9 98 17 56
106 146 145 146 16 0 37 -6 48 -13z m-385 -52 c-10 -30 -15 -55 -10 -55 5 0
11 4 14 9 3 5 30 25 60 45 55 36 106 47 106 23 0 -22 -22 -37 -55 -37 -47 0
-103 -47 -155 -128 -47 -74 -70 -89 -70 -47 0 33 100 245 116 245 10 0 8 -13
-6 -55z m-222 9 c12 -8 22 -24 22 -36 0 -17 4 -19 25 -14 14 4 25 2 25 -3 0
-5 -14 -12 -30 -16 -19 -4 -36 -17 -45 -34 -44 -87 -187 -153 -215 -100 -32
58 93 219 169 219 15 0 37 -7 49 -16z"/>
<path d="M2338 685 c-36 -24 -85 -91 -75 -102 9 -8 88 48 111 80 30 40 9 53
-36 22z"/>
<path d="M4713 690 c-34 -21 -90 -96 -79 -107 8 -9 86 48 110 81 28 37 10 51
-31 26z"/>
<path d="M4080 650 l-25 -20 58 0 c57 0 67 6 45 28 -18 18 -50 14 -78 -8z"/>
<path d="M4110 602 c-87 -6 -98 -11 -110 -48 -24 -71 28 -71 106 0 27 24 47
46 44 48 -3 2 -21 2 -40 0z"/>
</g>
</svg>
